<svg xmlns="http://www.w3.org/2000/svg" viewBox="0 3.049999952316284 313.29998779296875 55.45000076293945" data-asc="0.851" width="313.29998779296875" height="55.45000076293945"><defs/><g><g><g transform="translate(0, 0)"><path d="M8.45 44.50Q7.30 44.50 6.10 44.35Q2.95 43.95 1.48 42.47Q0 41 0 39.30Q0 37.45 1.63 35.95Q3.25 34.45 6.25 34.45Q8.25 34.45 10.60 35.25Q11.60 35.55 13.08 36.27Q14.55 37 16 37.75Q17.45 38.50 18.25 38.95Q20.45 36.80 22.33 33.97Q24.20 31.15 25.90 27.92Q27.60 24.70 29.35 21.40Q31.10 18.10 33.02 14.97Q34.95 11.85 37.30 9.25Q34.70 7.65 31.58 6.77Q28.45 5.90 25.15 5.90Q23.90 5.90 22.63 6.05Q21.35 6.20 20.05 6.45Q15.40 7.45 12.20 9.62Q9.00 11.80 7.38 14.37Q5.75 16.95 5.75 19.25Q5.75 20.95 6.65 22.25Q7.55 23.55 9.40 24.10Q10.75 24.50 11.75 24.50Q13.40 24.50 14.63 23.82Q15.85 23.15 16.70 22.15Q17.55 21.15 17.98 20.20Q18.40 19.25 18.45 18.65Q18.45 18.30 18.90 18.30Q19.60 18.30 19.45 19.15Q19.20 21.15 17.95 22.62Q16.70 24.10 14.95 24.92Q13.20 25.75 11.35 25.75Q10.15 25.75 8.85 25.35Q6.55 24.55 4.98 22.57Q3.40 20.60 3.40 17.90Q3.40 15.25 5.17 12.57Q6.95 9.90 10.85 7.75Q14.75 5.60 21.05 4.70Q23.15 4.40 25.30 4.40Q28.85 4.40 32.27 5.25Q35.70 6.10 38.75 7.70L40 6.25Q40.45 5.85 41.27 5.25Q42.10 4.65 42.95 4.10Q43.80 3.55 44.20 3.40Q44.85 3.15 45.25 3.15Q45.55 3.15 45.55 3.30Q45.55 3.65 44.75 4.15Q44.25 4.50 43.85 4.92Q43.45 5.35 43.25 5.60Q42.50 6.65 42.08 7.30Q41.65 7.95 40.95 9.00Q45.55 12.05 48.45 16.87Q51.35 21.70 51.35 27.90Q51.35 29.20 51.20 30.55Q50.90 33.75 49.45 36.35Q48 38.95 45.67 40.75Q43.35 42.55 40.52 43.52Q37.70 44.50 34.60 44.50Q33.45 44.50 32.30 44.35Q27.40 43.75 24.23 42.77Q21.05 41.80 18.65 40.75Q14.10 44.50 8.45 44.50M33.75 43Q37.75 43 40.83 41.27Q43.90 39.55 45.80 36.75Q47.70 33.95 48.05 30.70Q48.20 29.50 48.20 28.30Q48.20 22.85 45.88 18.37Q43.55 13.90 39.75 10.85Q37.55 14.30 35.23 18.15Q32.90 22.00 30.55 25.77Q28.20 29.55 25.98 32.75Q23.75 35.95 21.80 38.05Q21.45 38.35 20.93 38.92Q20.40 39.50 19.85 39.85Q22.20 40.90 25.20 41.75Q28.20 42.60 32.25 42.95Q32.70 43 33.02 43Q33.35 43 33.75 43M7.35 42.95Q10.10 43.10 12.50 42.27Q14.90 41.45 16.95 39.95Q15.15 39.10 13.30 38.17Q11.45 37.25 9.40 36.50Q8.05 36.05 7 36.05Q5.15 36.05 4.20 37.07Q3.25 38.10 3.25 39.35Q3.25 40.70 4.30 41.77Q5.35 42.85 7.35 42.95ZM57.15 42.75Q55.30 42.75 53.82 41.55Q52.35 40.35 52.35 37.90Q52.35 35.65 53.45 33.07Q54.55 30.50 56.25 28.55Q57.70 26.85 59.50 25.75Q61.30 24.65 62.90 24.65Q64 24.65 64.80 25.25Q65.65 25.90 65.65 27.10Q65.65 28.35 64.70 29.85Q63.75 31.35 62 32.65Q61.25 33.20 60.10 33.70Q58.95 34.20 57.80 34.52Q56.65 34.85 55.90 34.85Q55.65 35.45 55.42 36.45Q55.20 37.45 55.20 38.50Q55.20 39.75 55.70 40.75Q56.20 41.75 57.55 41.75Q59.20 41.75 60.55 40.80Q61.90 39.85 62.95 38.42Q64 37 64.72 35.55Q65.45 34.10 65.90 33.10Q66.20 32.40 66.70 32.40Q66.95 32.40 66.95 32.65Q66.95 32.85 66.80 33.15Q66.10 34.65 65.30 36.32Q64.50 38 63.40 39.47Q62.30 40.95 60.77 41.85Q59.25 42.75 57.15 42.75M56.25 33.95Q56.95 33.95 58.60 33.42Q60.25 32.90 61.60 31.75Q62.90 30.60 63.60 29.22Q64.30 27.85 64.30 26.90Q64.30 25.80 63.50 25.80Q62.90 25.80 61.85 26.60Q60.80 27.40 59.25 29.30Q58.30 30.50 57.45 31.90Q56.60 33.30 56.25 33.95ZM67.15 42.75Q64.70 42.75 63.67 41.47Q62.65 40.20 62.65 38.80Q62.65 37.65 63.22 36.70Q63.80 35.75 64.60 35.70Q65.60 33.75 66.77 31.45Q67.95 29.15 68.95 27.00Q69.65 25.55 70.72 24.20Q71.80 22.85 73.10 22.65L73.60 22.65Q74 22.65 74.32 22.70Q74.65 22.75 75 22.90Q75.55 23.15 75.55 23.65Q75.55 23.95 75.20 23.95Q75.05 23.95 74.80 23.80Q74.20 23.55 73.75 23.55Q73.45 23.55 73.20 23.70Q72.25 24.20 71.88 25.10Q71.50 26.00 71.50 27.00Q71.50 27.80 71.67 28.62Q71.85 29.45 72.10 30.10Q72.65 31.50 73.27 32.85Q73.90 34.20 73.90 35.75Q73.90 37.25 72.90 38.92Q71.90 40.60 70.35 41.60L70.70 41.65Q70.95 41.70 71.05 41.70Q71.15 41.70 71.20 41.70Q72.35 41.70 73.38 41.02Q74.40 40.35 75.20 39.35Q76 38.35 77.02 36.55Q78.05 34.75 79 32.75Q79.15 32.50 79.35 32.50Q79.60 32.50 79.72 32.67Q79.85 32.85 79.75 33.10Q79.10 34.50 78.27 36.13Q77.45 37.75 76.40 39.22Q75.35 40.70 73.97 41.63Q72.60 42.55 70.90 42.55Q70.50 42.55 70.05 42.50Q69.60 42.45 69.15 42.30Q68.65 42.50 68.13 42.63Q67.60 42.75 67.15 42.75M68.65 41.25Q69.50 40.55 70.17 39.20Q70.85 37.85 70.85 35.65Q70.85 33.70 70.45 31.50Q70.05 29.30 70.05 27.60Q70.05 27.25 70.07 26.97Q70.10 26.70 70.15 26.45Q69.50 27.80 68.65 29.57Q67.80 31.35 66.95 33Q66.10 34.65 65.50 35.80Q65.50 35.80 65.77 35.82Q66.05 35.85 66.30 36.17Q66.55 36.50 66.50 37.45Q66.45 38.70 67.07 39.77Q67.70 40.85 68.65 41.25M66.75 41.95Q67.05 41.95 67.30 41.88Q67.55 41.80 67.75 41.75Q67 41.20 66.42 40.27Q65.85 39.35 65.75 37.90Q64.85 38.85 64.85 39.95Q64.85 40.75 65.35 41.35Q65.85 41.95 66.75 41.95ZM84.45 22.25Q83.70 22.25 83.22 21.72Q82.75 21.20 82.75 20.45Q82.75 19.50 83.50 18.80Q84.25 18.10 85.15 18.10Q85.95 18.10 86.45 18.60Q86.95 19.10 86.95 19.80Q86.95 20.75 86.20 21.50Q85.45 22.25 84.45 22.25M80.40 42.55Q78.55 42.55 77.80 41.47Q77.05 40.40 77.05 39Q77.05 38.25 77.22 37.47Q77.40 36.70 77.65 36.05L81 27.50Q81.15 27.10 81.15 26.80Q81.15 26.30 80.90 25.92Q80.65 25.55 80.55 25.40L83.30 25.30Q84.05 25.25 84.38 25.47Q84.70 25.70 84.70 26.00Q84.70 26.30 84.35 27.10L80.20 36.85Q80.20 36.85 79.92 37.47Q79.65 38.10 79.60 38.30Q79.45 39.05 79.40 39.25Q79.35 39.45 79.35 39.50Q79.35 39.55 79.35 39.90Q79.35 40.55 79.67 41Q80 41.45 80.80 41.45Q81.30 41.45 81.95 41.15Q82.60 40.85 82.90 40.55Q84.15 39.25 85.38 37.13Q86.60 35 87.65 32.90Q87.85 32.40 88.15 32.40Q88.40 32.40 88.40 32.75Q88.40 32.95 88.25 33.35Q87.75 34.40 87 35.95Q86.25 37.50 85.22 39.02Q84.20 40.55 83 41.55Q81.80 42.55 80.40 42.55ZM84.25 58.50Q79.50 58.50 79.50 54.60Q79.50 52.75 80.80 51.30Q82.10 49.85 83.90 48.80Q86.40 47.30 88.75 46.40Q91.10 45.50 93.22 44.82Q95.35 44.15 97.25 43.35Q98.15 40.70 98.45 37.80Q98.60 36.30 98.60 35.20Q98.60 34.05 98.45 33.70Q97.90 34.75 97 36.25Q96.10 37.75 94.95 39.17Q93.80 40.60 92.47 41.55Q91.15 42.50 89.75 42.50Q89.25 42.50 88.80 42.35Q87.40 41.75 86.77 40.65Q86.15 39.55 86.15 38.15Q86.15 35.90 87.45 33.30Q88.75 30.70 90.55 28.55Q92 26.80 93.95 25.75Q95.90 24.70 97.90 24.70Q100.20 24.70 102.20 26.25Q102.95 26.85 102.95 27.55Q102.95 28.30 102.35 28.30Q101.85 28.30 101.65 27.65Q100.95 25.80 99.40 25.80Q98.15 25.80 96.55 26.87Q94.95 27.95 93.55 29.55Q92.35 30.90 91.22 32.65Q90.10 34.40 89.38 36.10Q88.65 37.80 88.65 39.05Q88.65 39.90 89.05 40.50Q89.45 41.10 90.30 41.10Q91.45 41.10 92.72 40Q94 38.90 95.17 37.30Q96.35 35.70 97.22 34.05Q98.10 32.40 98.45 31.30Q98.80 30.15 99.40 29.87Q100 29.60 100.60 29.60Q101.20 29.60 101.60 29.30Q101.80 30.40 101.88 31.52Q101.95 32.65 101.95 33.80Q101.95 37.65 100.95 41.55Q101.85 40.85 102.82 40.02Q103.80 39.20 104.50 38.25Q105.75 36.55 106.38 35.13Q107 33.70 107.35 32.90Q107.65 32.40 108 32.40Q108.30 32.40 108.30 32.70Q108.30 32.95 108.10 33.30Q106.85 35.95 105.80 37.82Q104.75 39.70 103.50 40.97Q102.25 42.25 100.40 43.15Q99.60 45.55 98 48.20Q96.40 50.85 94.25 53.20Q92.10 55.55 89.55 57.02Q87 58.50 84.25 58.50M83.05 57.50Q84.15 57.50 85.38 57.02Q86.60 56.55 87.70 55.90Q88.80 55.25 89.40 54.80Q90.55 53.90 91.75 52.55Q92.95 51.20 93.85 49.95Q94.70 48.75 95.47 47.42Q96.25 46.10 96.80 44.80Q96.40 44.95 95.82 45.15Q95.25 45.35 95 45.45Q93.35 46 91.38 46.72Q89.40 47.45 87.45 48.32Q85.50 49.20 83.90 50.25Q82.50 51.20 81.57 52.75Q80.65 54.30 80.65 55.45Q80.65 56.30 81.22 56.90Q81.80 57.50 83.05 57.50ZM102.60 42.95Q104.40 39.30 106.08 35.72Q107.75 32.15 109.50 28.90Q110.50 27.10 111.17 26.37Q111.85 25.65 113 25.65Q113.40 25.65 113.85 25.77Q114.30 25.90 114.75 25.90Q115.05 25.90 115.20 25.85Q114.50 26.25 113.40 27.82Q112.30 29.40 111.15 31.45Q110 33.50 109.10 35.30Q110.05 34.15 111.08 33Q112.10 31.85 113.35 30.80Q114.55 29.75 116.22 28.62Q117.90 27.50 119.50 26.75Q121.10 26.00 122.05 26.00Q122.40 26.00 122.55 26.05Q122.55 26.05 122 27.02Q121.45 28.00 120.63 29.57Q119.80 31.15 118.95 32.92Q118.10 34.70 117.42 36.32Q116.75 37.95 116.55 39.05Q116.40 39.70 116.40 40.25Q116.40 41.05 116.70 41.30Q117 41.55 117.35 41.55Q118.30 41.55 119.35 40.52Q120.40 39.50 121.38 38Q122.35 36.50 123.13 35.07Q123.90 33.65 124.25 32.90Q124.45 32.50 124.55 32.42Q124.65 32.35 124.85 32.35Q125.15 32.35 125.15 32.75Q125.15 33 125 33.30Q124.40 34.45 123.58 36.05Q122.75 37.65 121.70 39.17Q120.65 40.70 119.40 41.72Q118.15 42.75 116.70 42.75Q115.70 42.75 114.63 42.05Q113.55 41.35 113.55 39.45Q113.55 38.90 113.65 38.27Q113.75 37.65 114 36.90Q114.40 35.90 114.95 34.75Q115.50 33.60 116.75 31.60Q117.10 31.05 117.17 30.75Q117.25 30.45 117.25 30.25Q117.25 29.65 116.70 29.65Q116.25 29.65 115.38 30.15Q114.50 30.65 113.20 31.90Q111.95 33.10 110.22 35.30Q108.50 37.50 106.25 41.80Q105.90 42.45 105.47 42.50Q105.05 42.55 104.30 42.60Q103.80 42.65 103.35 42.67Q102.90 42.70 102.60 42.95ZM127.70 42.75Q125.85 42.75 124.38 41.55Q122.90 40.35 122.90 37.90Q122.90 35.65 124 33.07Q125.10 30.50 126.80 28.55Q128.25 26.85 130.05 25.75Q131.85 24.65 133.45 24.65Q134.55 24.65 135.35 25.25Q136.20 25.90 136.20 27.10Q136.20 28.35 135.25 29.85Q134.30 31.35 132.55 32.65Q131.80 33.20 130.65 33.70Q129.50 34.20 128.35 34.52Q127.20 34.85 126.45 34.85Q126.20 35.45 125.97 36.45Q125.75 37.45 125.75 38.50Q125.75 39.75 126.25 40.75Q126.75 41.75 128.10 41.75Q129.75 41.75 131.10 40.80Q132.45 39.85 133.50 38.42Q134.55 37 135.28 35.55Q136 34.10 136.45 33.10Q136.75 32.40 137.25 32.40Q137.50 32.40 137.50 32.65Q137.50 32.85 137.35 33.15Q136.65 34.65 135.85 36.32Q135.05 38 133.95 39.47Q132.85 40.95 131.32 41.85Q129.80 42.75 127.70 42.75M126.80 33.95Q127.50 33.95 129.15 33.42Q130.80 32.90 132.15 31.75Q133.45 30.60 134.15 29.22Q134.85 27.85 134.85 26.90Q134.85 25.80 134.05 25.80Q133.45 25.80 132.40 26.60Q131.35 27.40 129.80 29.30Q128.85 30.50 128 31.90Q127.15 33.30 126.80 33.95ZM147.60 42.55Q146.25 42.55 145.35 41.20Q145.10 40.80 144.90 40.15Q144.70 39.50 144.70 38.70Q144.70 38.25 144.75 37.77Q144.80 37.30 144.95 36.80Q144.25 37.90 143.32 39.22Q142.40 40.55 141.22 41.52Q140.05 42.50 138.60 42.50Q138.10 42.50 137.55 42.35Q136.20 41.95 135.63 40.95Q135.05 39.95 135.05 38.55Q135.05 37 135.68 35.15Q136.30 33.30 137.28 31.55Q138.25 29.80 139.30 28.55Q140.80 26.80 142.75 25.75Q144.70 24.70 146.70 24.70Q148.50 24.70 150.10 25.65Q150.85 24.25 151.70 22.52Q152.55 20.80 153.40 19.10Q154.25 17.40 154.90 15.97Q155.55 14.55 155.90 13.80Q156.65 12.05 157.32 11.57Q158 11.10 158.95 11.10Q159.50 11.10 160.18 11.22Q160.85 11.35 161.50 11.30Q161.20 11.60 160.28 13.02Q159.35 14.45 158.10 16.65Q156.85 18.85 155.43 21.47Q154 24.10 152.63 26.77Q151.25 29.45 150.07 31.82Q148.90 34.20 148.20 35.90Q148 36.30 147.63 37.52Q147.25 38.75 147.25 39.65Q147.25 40.30 147.55 40.77Q147.85 41.25 148.55 41.25Q149.50 41.25 150.47 40.27Q151.45 39.30 152.35 37.88Q153.25 36.45 153.95 35.07Q154.65 33.70 155 32.90Q155.25 32.35 155.60 32.35Q155.90 32.35 155.90 32.80Q155.90 32.85 155.90 32.97Q155.90 33.10 155.80 33.25Q155.35 34.30 154.57 35.85Q153.80 37.40 152.75 38.95Q151.70 40.50 150.40 41.52Q149.10 42.55 147.60 42.55M138.95 41.05Q139.65 41.05 140.70 40.27Q141.75 39.50 142.95 37.80Q144.35 35.80 146.15 32.80Q147.95 29.80 149.70 26.45Q149.05 25.85 148.20 25.85Q146.80 25.85 145.07 27.15Q143.35 28.45 141.72 30.45Q140.10 32.45 139 34.50Q138.25 35.90 137.93 37.05Q137.60 38.20 137.60 39.05Q137.60 41.05 138.95 41.05ZM171.60 42.60Q169.45 42.60 168.40 41.50Q167.35 40.40 167.35 38.75Q167.35 37.95 167.55 37.20Q167.85 36.05 168.42 34.63Q169 33.20 169.75 31.70Q168 35.10 166.57 37.42Q165.15 39.75 164.40 40.45Q164.25 40.60 164.10 40.60Q163.85 40.60 163.85 40.35Q163.85 40.15 164 39.95Q165.05 38.55 166.42 36.10Q167.80 33.65 169.35 30.62Q170.90 27.60 172.50 24.50Q174.10 21.40 175.63 18.65Q177.15 15.90 178.40 14.00Q179.30 12.65 180.10 12.07Q180.90 11.50 181.75 11.50L182 11.50Q182.45 11.50 183.02 11.65Q183.60 11.80 184.10 11.70Q183.45 12.40 182.13 14.17Q180.80 15.95 179.17 18.32Q177.55 20.70 175.92 23.32Q174.30 25.95 173.05 28.45Q171.85 30.85 170.92 33.57Q170 36.30 170 38.35Q170 39.55 170.40 40.35Q170.80 41.15 171.75 41.35Q173.35 41.70 176.05 38.50Q177.10 37.25 178.15 35.52Q179.20 33.80 179.80 32.30Q180.65 30.30 180.65 28.65Q180.65 27.40 180.02 26.65Q179.40 25.90 177.95 26.05L177.75 26.05Q176.85 26.05 176.85 25.55Q176.85 25.35 177.13 25.15Q177.40 24.95 177.90 24.95Q178.05 24.95 178.22 24.97Q178.40 25.00 178.60 25.05Q180.85 25.40 181.82 26.87Q182.80 28.35 182.80 30.25Q182.80 30.65 182.75 31.12Q182.70 31.60 182.60 32.15Q182.20 34.20 181.05 36.32Q179.90 38.45 178.22 40.05Q176.55 41.65 174.50 42.20Q173.65 42.40 172.92 42.50Q172.20 42.60 171.60 42.60ZM178.60 58.50Q176.00 58.50 174.90 57.47Q173.80 56.45 173.80 55.05Q173.80 54.30 174.00 53.75Q174.20 53.20 174.60 52.35Q175.30 50.90 176.55 49.85Q177.80 48.80 179.25 48.15Q181.85 46.95 185.17 46.20Q188.50 45.45 191.55 44.55Q192.50 42.90 193.30 40.77Q194.10 38.65 194.75 36.63Q195.40 34.60 195.80 33.30Q195.20 34.40 194.27 35.97Q193.35 37.55 192.20 39.05Q191.05 40.55 189.72 41.55Q188.40 42.55 186.95 42.55Q186.40 42.55 185.62 42.30Q184.85 42.05 184.27 41.38Q183.70 40.70 183.70 39.35Q183.70 38.05 184.32 36.82Q184.95 35.60 185.50 34.45Q185.35 34.45 185.17 34.35Q185.00 34.25 185.00 34.05Q185.00 33.85 185.10 33.65Q185.30 33.25 185.55 32.80Q185.80 32.35 186.00 31.85Q186.75 30.30 187.50 28.87Q188.25 27.45 188.80 26.35Q189.35 25.25 190.70 25.25L193.80 25.25Q193.45 25.55 192.92 25.92Q192.40 26.30 191.95 27.05Q190.60 29.35 189.60 31.47Q188.60 33.60 187.45 36Q186.90 37.15 186.65 38.10Q186.40 39.05 186.40 39.75Q186.40 41.40 187.50 41.40Q188.70 41.40 190.40 39.45Q191.80 37.80 193.22 35.52Q194.65 33.25 195.97 30.82Q197.30 28.40 198.30 26.35Q198.85 25.25 200.25 25.25L203 25.25Q201.55 26.25 200.77 27.85Q200.00 29.45 199.05 31.95Q198.00 34.70 197.07 37.63Q196.15 40.55 195.00 43.50Q196.65 42.95 198.72 41.80Q200.80 40.65 202.25 38.50Q203.40 36.80 204.22 35.22Q205.05 33.65 205.40 32.95Q205.60 32.45 205.95 32.45Q206.30 32.45 206.30 32.90Q206.30 33.15 206.15 33.45Q204.85 36.05 203.82 37.82Q202.80 39.60 201.57 40.88Q200.35 42.15 198.60 43.13Q196.85 44.10 194.15 45.10Q192.95 47.25 191.42 49.57Q189.90 51.90 187.97 53.92Q186.05 55.95 183.72 57.22Q181.40 58.50 178.60 58.50M177.40 57.50Q179.05 57.50 180.80 56.50Q182.55 55.50 184.20 53.97Q185.85 52.45 187.22 50.88Q188.60 49.30 189.45 48.10Q189.70 47.75 190.00 47.20Q190.30 46.65 190.60 46.15Q188.15 46.80 185.22 47.57Q182.30 48.35 180.15 49.30Q177.75 50.30 176.37 52.15Q175.00 54 175.00 55.45Q175.00 56.35 175.57 56.92Q176.15 57.50 177.40 57.50ZM260.30 44.65Q258.90 44.65 257.52 44Q256.15 43.35 254.95 42.10Q253.20 40.30 251.93 37.77Q250.65 35.25 249.75 32.57Q248.85 29.90 248.35 27.67Q247.85 25.45 247.65 24.25Q245.80 27.80 243.82 31.27Q241.85 34.75 238.80 38.10Q235.90 41.25 232.45 42.88Q229 44.50 225.30 44.50Q224.15 44.50 222.95 44.35Q219.65 43.95 218.10 42.45Q216.55 40.95 216.55 39.25Q216.55 37.40 218.20 35.90Q219.85 34.40 222.90 34.40Q223.90 34.40 225.05 34.60Q226.20 34.80 227.45 35.25Q228 35.45 228 35.70Q228 35.90 227.60 35.90Q227.35 35.90 227.20 35.85Q225.55 35.25 224.25 35.25Q222.15 35.25 221.05 36.47Q219.95 37.70 219.95 39.15Q219.95 40.55 221.15 41.75Q222.35 42.95 224.85 42.95Q228 42.95 230.65 41.47Q233.30 40 235.60 37.42Q237.90 34.85 240 31.57Q242.10 28.30 244.10 24.75Q247.45 18.80 250.18 13.92Q252.90 9.05 255.95 5.65Q254.60 5.50 253.20 5.45Q251.80 5.40 250.35 5.40Q247.20 5.40 243.82 5.72Q240.45 6.05 237.30 6.75Q233.05 7.65 230 9.42Q226.95 11.20 225.17 13.37Q223.40 15.55 222.95 17.75Q222.80 18.55 222.80 19.30Q222.80 21.85 224.50 23.25Q226.20 24.65 228.40 24.65Q229.80 24.65 231.22 24.07Q232.65 23.50 233.80 22.25Q234.75 21.25 235.20 20.37Q235.65 19.50 235.70 19.05Q235.75 18.35 236 18.35Q236.15 18.35 236.28 18.60Q236.40 18.85 236.35 19.10Q236.15 20.25 235.65 21.35Q235.15 22.45 234.45 23.20Q233.05 24.65 231.25 25.35Q229.45 26.05 227.80 26.05Q225.85 26.05 224.13 25.20Q222.40 24.35 221.35 22.72Q220.30 21.10 220.30 18.70Q220.30 15.90 222.25 12.97Q224.20 10.05 228.13 7.80Q232.05 5.55 237.90 4.70Q240.85 4.30 243.63 4.07Q246.40 3.85 249 3.85Q251.10 3.85 253.10 4.00Q255.10 4.15 257.05 4.40Q258.35 3.05 258.80 3.05Q259.15 3.05 259.15 3.60Q259.15 3.80 259.10 4.10Q259.05 4.40 258.95 4.70Q260.30 4.90 261.57 5.12Q262.85 5.35 263.85 5.65Q267.80 6.75 269.63 8.52Q271.45 10.30 271.45 12.35Q271.45 14.55 269.48 16.75Q267.50 18.95 263.93 20.65Q260.35 22.35 255.55 23.15Q254 23.40 252.82 23.50Q251.65 23.60 250.80 23.65Q250.90 24.15 251.25 25.75Q251.60 27.35 252.25 29.52Q252.90 31.70 253.93 34.10Q254.95 36.50 256.40 38.65Q257.55 40.35 258.75 41.45Q259.95 42.55 261.30 42.55Q262.15 42.55 263.07 42.10Q264 41.65 265 40.65Q266.20 39.45 267.18 37.92Q268.15 36.40 268.85 35.05Q269.55 33.70 269.80 33.15Q270.20 32.45 270.65 32.45Q270.80 32.45 270.80 32.65Q270.80 32.75 270.65 33.15Q270.40 33.70 269.90 34.82Q269.40 35.95 268.70 37.30Q268 38.65 267.20 39.95Q266.40 41.25 265.60 42.15Q264.45 43.40 263.02 44.02Q261.60 44.65 260.30 44.65M248.70 22.30Q250.15 22.05 251.80 21.95Q253.45 21.85 255.05 21.65Q257.65 21.30 259.95 20.27Q262.25 19.25 264.02 17.80Q265.80 16.35 266.80 14.72Q267.80 13.10 267.80 11.60Q267.80 8.20 263.25 6.90Q262.35 6.65 260.93 6.40Q259.50 6.15 258.35 5.95Q255.95 10.05 253.43 14.00Q250.90 17.95 248.70 22.30ZM272.25 42.55Q270.35 42.55 269.45 41.27Q268.55 40 268.55 38.15Q268.55 35.90 269.60 33.45Q270.60 31.15 272.15 29.25Q273.70 27.35 275.50 26.17Q277.30 25.00 279 25.00Q280.90 25.00 281.80 26.25Q282.70 27.50 282.70 29.40Q282.70 31.70 281.65 34.10Q281.05 35.45 279.95 37.07Q278.85 38.70 277.45 40.05Q277.75 40.60 278.30 40.97Q278.85 41.35 279.80 41.35Q281 41.35 282.07 40.35Q283.15 39.35 284.05 37.92Q284.95 36.50 285.65 35.05Q286.35 33.60 286.80 32.70Q286.95 32.40 287.30 32.40Q287.50 32.40 287.60 32.57Q287.70 32.75 287.55 33.10Q287.25 33.85 286.55 35.32Q285.85 36.80 284.85 38.38Q283.85 39.95 282.55 41.05Q281.25 42.15 279.65 42.15Q278.55 42.15 277.75 41.77Q276.95 41.40 276.45 40.85Q275.40 41.65 274.35 42.10Q273.30 42.55 272.25 42.55M273 41.45Q274.35 41.45 275.90 40.15Q275.50 39.55 275.30 38.90Q275.10 38.25 275.10 37.70Q275.10 36.80 275.53 36.15Q275.95 35.50 276.85 35.50Q277.50 35.50 277.93 35.97Q278.35 36.45 278.35 37.05Q278.35 37.20 278.32 37.32Q278.30 37.45 278.25 37.60Q279.10 36.45 279.85 34.90Q281.50 31.35 281.50 29.05Q281.50 27.90 281.05 27.25Q280.60 26.60 279.70 26.60Q278.65 26.60 277.43 27.50Q276.20 28.40 275.07 29.90Q273.95 31.40 273.10 33.25Q272.30 34.95 271.82 36.52Q271.35 38.10 271.35 39.25Q271.35 40.25 271.75 40.85Q272.15 41.45 273 41.45ZM285.70 43.15Q284.80 43.15 284.80 42.40Q284.80 41.90 285.05 41.55Q285.20 41.25 286.10 40.88Q287 40.50 287.98 40.13Q288.95 39.75 289.30 39.55Q290.20 39.10 291.28 37.82Q292.35 36.55 293.50 34.92Q294.65 33.30 295.75 31.75Q296.85 30.20 297.85 29.15Q296.95 28.95 295.80 28.70Q294.65 28.45 293.65 28.45Q292.45 28.45 291.57 28.72Q290.70 29.00 289.85 29.82Q289 30.65 288.05 32.25Q287.10 33.85 285.75 36.50Q285.50 36.90 285.15 36.90Q284.90 36.90 284.90 36.60Q284.90 36.40 285.05 36.10Q285.30 35.65 285.90 34.47Q286.50 33.30 287.10 32.07Q287.70 30.85 288 30.30Q289.25 28.05 290.43 27.00Q291.60 25.95 292.73 25.65Q293.85 25.35 294.85 25.35Q295.70 25.35 296.48 25.70Q297.25 26.05 298 26.42Q298.75 26.80 299.50 26.80Q300.45 26.80 300.90 26.30Q301.35 25.80 301.70 25.80Q302.05 25.80 302.30 26.10Q302.55 26.40 302.55 26.85Q302.55 27.50 302.13 27.70Q301.70 27.90 301.30 28.15Q299.95 28.90 298.73 30.37Q297.50 31.85 296.32 33.60Q295.15 35.35 294 36.97Q292.85 38.60 291.70 39.65Q292.70 39.95 294.15 40.30Q295.60 40.65 296.80 40.65Q297.10 40.65 297.32 40.63Q297.55 40.60 297.80 40.55Q298.95 40.25 299.95 39.17Q300.95 38.10 301.80 36.70Q302.65 35.30 303.32 33.90Q304 32.50 304.45 31.60Q304.60 31.30 304.90 31.30Q305.20 31.30 305.20 31.60Q305.20 31.85 305.10 32.05Q303.95 34.80 302.55 37.32Q301.15 39.85 299.53 41.40Q297.90 42.95 296 42.90Q293.85 42.80 292.20 42.45Q290.55 42.10 289.40 42.10Q288.45 42.10 287.57 42.63Q286.70 43.15 285.70 43.15ZM309.35 22.25Q308.60 22.25 308.13 21.72Q307.65 21.20 307.65 20.45Q307.65 19.50 308.40 18.80Q309.15 18.10 310.05 18.10Q310.85 18.10 311.35 18.60Q311.85 19.10 311.85 19.80Q311.85 20.75 311.10 21.50Q310.35 22.25 309.35 22.25M305.30 42.55Q303.45 42.55 302.70 41.47Q301.95 40.40 301.95 39Q301.95 38.25 302.13 37.47Q302.30 36.70 302.55 36.05L305.90 27.50Q306.05 27.10 306.05 26.80Q306.05 26.30 305.80 25.92Q305.55 25.55 305.45 25.40L308.20 25.30Q308.95 25.25 309.27 25.47Q309.60 25.70 309.60 26.00Q309.60 26.30 309.25 27.10L305.10 36.85Q305.10 36.85 304.82 37.47Q304.55 38.10 304.50 38.30Q304.35 39.05 304.30 39.25Q304.25 39.45 304.25 39.50Q304.25 39.55 304.25 39.90Q304.25 40.55 304.57 41Q304.90 41.45 305.70 41.45Q306.20 41.45 306.85 41.15Q307.50 40.85 307.80 40.55Q309.05 39.25 310.27 37.13Q311.50 35 312.55 32.90Q312.75 32.40 313.05 32.40Q313.30 32.40 313.30 32.75Q313.30 32.95 313.15 33.35Q312.65 34.40 311.90 35.95Q311.15 37.50 310.13 39.02Q309.10 40.55 307.90 41.55Q306.70 42.55 305.30 42.55Z"/></g></g></g></svg>