<svg xmlns="http://www.w3.org/2000/svg" viewBox="0 11.300000190734863 249.85000610351562 40.0157356262207" data-asc="0.88" width="249.85000610351562" height="40.0157356262207"><defs/><g><g><g transform="translate(0, 0)"><path d="M53.90 12.70Q53.85 12.80 53.15 14.30Q52.45 15.80 51.35 18.15Q50.25 20.50 49 23.15Q47.75 25.80 46.60 28.20Q47.55 28.25 48.25 28.17Q48.95 28.10 49.30 27.85Q49.70 27.55 49.95 27.55Q50.20 27.55 50.20 27.80Q50.20 28.15 49.65 28.65Q49.15 29.10 48.15 29.63Q47.15 30.15 45.70 30.20Q44.85 31.90 43.70 34.23Q42.55 36.55 41.50 39.20Q41.30 39.70 41.13 40.35Q40.95 41 40.95 41.60Q40.95 42.30 41.27 42.80Q41.60 43.30 42.40 43.30Q43.90 43.30 45.42 42.27Q46.95 41.25 48.45 39.63Q49.95 38 51.35 36.15Q51.60 35.85 51.80 35.85Q52.05 35.85 52.05 36.25Q52.05 36.55 51.85 36.80Q50.40 38.70 48.85 40.48Q47.30 42.25 45.60 43.35Q43.90 44.45 41.95 44.45Q39.90 44.45 39.02 43.42Q38.15 42.40 38.15 40.80Q38.15 40.05 38.32 39.23Q38.50 38.40 38.75 37.55Q39.40 35.55 40.40 33.52Q41.40 31.50 42.10 30.10Q41.25 30 39.75 29.75Q38.25 29.50 36.50 29.30Q34.75 29.10 33 29.15Q31.75 32.15 30.00 35.33Q28.25 38.50 26.03 41.40Q23.80 44.30 21.08 46.60Q18.35 48.90 15.10 50.17Q11.85 51.45 8.05 51.30Q5.85 51.20 4 50.13Q2.15 49.05 1.08 47.10Q0 45.15 0 42.50Q0 41.25 0.25 39.92Q0.50 38.60 1.05 37.15Q2.15 34.30 4.25 31.98Q6.35 29.65 8.95 28.27Q11.55 26.90 14.05 26.90Q16.25 26.90 17.83 28.35Q19.40 29.80 19.40 32.55Q19.40 33.85 18.95 35.45Q18.05 38.50 16.35 40.15Q14.65 41.80 12.95 42.50Q11.70 42.95 10.55 42.95Q9.65 42.95 9.03 42.65Q8.40 42.35 8.30 41.80L8.30 41.65Q8.30 41.15 8.70 41.15Q9.20 41.15 9.25 41.75Q9.30 41.90 9.63 42.08Q9.95 42.25 10.55 42.25Q10.95 42.25 11.43 42.15Q11.90 42.05 12.40 41.85Q13.70 41.30 15.08 39.75Q16.45 38.20 17.25 35.45Q17.75 33.80 17.75 32.35Q17.75 30.05 16.60 28.90Q15.45 27.75 13.90 27.75Q11.55 27.75 9.48 29.20Q7.40 30.65 5.88 32.90Q4.35 35.15 3.45 37.60Q2.90 39.10 2.65 40.50Q2.40 41.90 2.40 43.15Q2.40 46.45 4.05 48.45Q5.70 50.45 8.55 50.45Q11.05 50.45 13.40 49.27Q15.75 48.10 17.90 46.17Q20.05 44.25 21.93 41.92Q23.80 39.60 25.33 37.23Q26.85 34.85 28.00 32.80Q29.15 30.75 29.85 29.40Q27.65 29.75 26.05 30.32Q24.45 30.90 23.50 32.95Q23.40 33.20 23.08 33.48Q22.75 33.75 22.50 33.80Q22.45 33.80 22.43 33.83Q22.40 33.85 22.35 33.85Q22.00 33.85 22.00 33.45Q22.00 33.10 22.40 32.30Q23.90 29.80 26.20 28.57Q28.50 27.35 31.05 27Q31.90 25.40 32.80 23.60Q33.70 21.80 34.80 20Q35.80 18.25 36.95 16.47Q38.10 14.70 39.25 13.35Q38.75 13.30 38.25 13.27Q37.75 13.25 37.20 13.25Q34.55 13.25 31.93 13.90Q29.30 14.55 27.38 16.02Q25.45 17.50 24.85 20.05Q24.80 20.25 24.78 20.47Q24.75 20.70 24.75 20.95Q24.75 22.20 25.53 23Q26.30 23.80 27.40 23.80Q28.40 23.80 29.28 23.05Q30.15 22.30 30.70 21.25Q31.25 20.20 31.25 19.40Q31.25 18.80 31.60 18.80Q31.90 18.80 31.90 19.30Q31.90 21 31.13 22.13Q30.35 23.25 29.20 23.80Q28.05 24.35 26.80 24.35Q25.10 24.35 23.78 23.25Q22.45 22.15 22.70 20.15Q23.00 17.80 24.53 16.30Q26.05 14.80 28.20 13.97Q30.35 13.15 32.70 12.85Q35.05 12.55 37 12.55Q38.10 12.55 39 12.63Q39.90 12.70 40.40 12.80Q40.55 12.85 40.55 13.05Q40.55 13.30 40.33 13.70Q40.10 14.10 40 14.20Q38.15 17.25 36.80 20.40Q35.45 23.55 34 26.85Q35.45 26.90 37.23 27.18Q39 27.45 40.60 27.72Q42.20 28 43.10 28.15Q44.75 25.15 46.30 22.38Q47.85 19.60 49.10 17.35Q50.35 15.10 51.10 13.75Q51.80 12.50 52.40 11.92Q53 11.35 53.30 11.30L53.50 11.30Q53.80 11.30 53.92 11.52Q54.05 11.75 54.05 12Q54.05 12.40 53.90 12.70ZM55.80 44.40Q54.05 44.50 52.97 43.77Q51.90 43.05 51.42 41.83Q50.95 40.60 50.95 39.25Q50.95 38.50 51.10 37.75Q51.25 37 51.45 36.35Q52 34.75 52.95 33.40Q53.90 32.05 55 31.10Q56.05 30.20 57.32 29.67Q58.60 29.15 59.70 29.15Q60.80 29.15 61.55 29.73Q62.30 30.30 62.30 31.60Q62.30 32.30 62 33.35Q61.45 35.10 59.67 36.45Q57.90 37.80 55.85 37.80Q55.25 37.80 54.55 37.65Q54.20 38.90 54.20 40.20Q54.20 41.55 54.77 42.42Q55.35 43.30 56.65 43.30Q58.15 43.30 59.95 42.27Q61.75 41.25 63.57 39.50Q65.40 37.75 66.90 35.50Q67.10 35.15 67.35 35.15Q67.60 35.15 67.60 35.55Q67.60 35.95 67.35 36.25Q66 38.10 64.25 39.92Q62.50 41.75 60.40 43Q58.30 44.25 55.80 44.40M55.50 36.95Q56.35 36.95 57.35 36.30Q58.35 35.65 59.22 34.75Q60.10 33.85 60.45 33.10Q61 32 61 31.25Q61 30.55 60.63 30.30Q60.25 30.05 60.05 30.05Q59.55 30.05 58.67 30.60Q57.80 31.15 56.95 32.35Q56.15 33.40 55.55 34.60Q54.95 35.80 54.80 36.80Q55.10 36.95 55.50 36.95ZM78.15 44.30Q76.75 44.30 76.15 43.20Q75.55 42.10 75.55 40.65Q75.55 40.40 75.55 40.10Q75.55 39.80 75.60 39.55Q74.65 41.25 73.15 42.75Q71.65 44.25 69.45 44.25Q67.95 44.25 66.93 43.15Q65.90 42.05 65.90 39.80Q65.90 38 66.90 35.30Q67.45 34 68.50 32.65Q69.55 31.30 71.05 30.38Q72.55 29.45 74.40 29.45Q76.40 29.45 77.20 30.20Q78 30.95 78.20 31.35Q78.20 31.40 78.23 31.42Q78.25 31.45 78.25 31.50Q78.25 31.95 77.70 31.95Q77.45 31.95 77.20 31.70Q76.60 31 76 30.70Q75.40 30.40 74.85 30.40Q73.70 30.40 72.70 31.38Q71.70 32.35 70.93 33.67Q70.15 35 69.65 36.15Q68.95 37.75 68.63 39.02Q68.30 40.30 68.30 41.15Q68.30 43.40 69.85 43.40Q70.95 43.40 72.45 42Q73.95 40.60 75.30 37.85Q76.50 35.45 77.45 33.58Q78.40 31.70 79.10 30.30Q79.25 29.95 79.85 29.77Q80.45 29.60 81.05 29.60Q81.60 29.60 82.05 29.77Q82.50 29.95 82.50 30.35Q82.50 30.55 82.25 30.90Q81.65 31.75 80.73 33.40Q79.80 35.05 79.03 36.85Q78.25 38.65 78 40.05Q77.85 40.80 77.85 41.40Q77.85 43 78.95 43Q79.30 43 80.05 42.75Q81.45 42.15 82.93 40.88Q84.40 39.60 85.73 38.05Q87.05 36.50 87.95 35.15Q88.40 34.50 88.65 34.50Q88.80 34.50 88.80 34.75Q88.80 35.15 88.40 35.75Q87.50 37.10 86.13 38.75Q84.75 40.40 83.18 41.80Q81.60 43.20 80.10 43.85Q79 44.30 78.15 44.30ZM93.40 44.35Q92.15 44.35 91.50 43.58Q90.85 42.80 90.85 41.55Q90.85 41 90.98 40.33Q91.10 39.65 91.40 39Q91.95 37.70 92.68 36.52Q93.40 35.35 94 33.95Q94.35 33.20 94.35 32.60Q94.35 31.85 93.75 31.57Q93.15 31.30 92.30 31.23Q91.45 31.15 90.70 31Q89.90 33.30 88.83 35.10Q87.75 36.90 86.15 38.70Q85.60 39.25 85.35 39.25Q85.15 39.25 85.15 39.05Q85.15 38.70 85.70 38.10Q86.80 36.85 87.68 35.42Q88.55 34 89.13 32.75Q89.70 31.50 89.85 30.90Q88.75 30.45 88.10 29.17Q87.45 27.90 87.45 26.65Q87.45 25.15 88.20 24.17Q88.95 23.20 89.75 23.20Q90.45 23.20 91 24Q91.55 24.80 91.55 26.70Q91.55 27.50 91.35 28.32Q91.15 29.15 91 29.70Q91.60 29.80 92.40 29.82Q93.20 29.85 93.75 29.90Q94.40 29.90 95.03 29.95Q95.65 30 96.15 30.15Q97.50 30.55 97.50 31.80Q97.50 32.90 96.65 34.55Q96 35.95 95.20 37.35Q94.40 38.75 93.85 40.20Q93.65 40.70 93.53 41.23Q93.40 41.75 93.40 42.15Q93.40 43.15 94.30 43.15Q94.80 43.15 95.60 42.85Q97 42.25 98.53 40.95Q100.05 39.65 101.40 38.10Q102.75 36.55 103.60 35.25Q104.05 34.60 104.40 34.60Q104.60 34.60 104.60 34.85Q104.60 35.20 104.20 35.75Q103.35 37.10 101.93 38.73Q100.50 40.35 98.90 41.73Q97.30 43.10 95.80 43.75Q94.40 44.35 93.40 44.35M90.15 29.55Q90.20 29.35 90.20 28.85Q90.20 28.45 90.18 27.97Q90.15 27.50 90.15 27Q90.15 24.90 89.60 25Q89.40 25.05 89.25 25.50Q89.10 25.95 89.10 26.55Q89.10 27.40 89.38 28.30Q89.65 29.20 90.15 29.55ZM105.65 44.50Q104 44.50 102.90 43.48Q101.80 42.45 101.80 40.80Q101.80 39.95 102.10 39.05Q103.10 36.30 104.45 33.33Q105.80 30.35 107.35 27.50L105.65 27.50Q104.55 27.50 104.55 27.05Q104.55 26.80 104.88 26.63Q105.20 26.45 105.65 26.45Q106.15 26.40 106.70 26.43Q107.25 26.45 107.90 26.45L112.20 18.55Q112.40 18.15 113.13 18.02Q113.85 17.90 114.20 17.90Q114.75 17.90 115.28 18.15Q115.80 18.40 115.60 18.70Q115.45 18.90 114.98 19.80Q114.50 20.70 113.85 21.90Q113.20 23.10 112.53 24.32Q111.85 25.55 111.35 26.45L113.50 26.45Q114.75 26.45 116.18 26.43Q117.60 26.40 118.75 26.30Q119.90 26.20 120.25 26.05Q120.55 25.90 120.85 25.90Q121.35 25.90 121.35 26.30Q121.35 26.75 120.65 27.15Q120.15 27.40 118.70 27.47Q117.25 27.55 115.35 27.55L113.65 27.55Q113 27.55 112.25 27.52Q111.50 27.50 110.80 27.50Q109.15 30.55 107.42 33.52Q105.70 36.50 104.65 39.85Q104.35 40.80 104.35 41.55Q104.35 43.35 105.95 43.35Q106.75 43.35 107.95 42.75Q110.15 41.65 112.25 39.60Q114.35 37.55 115.90 35.35Q116.15 34.95 116.45 34.95Q116.65 34.95 116.65 35.20Q116.65 35.45 116.45 35.80Q114.85 38.20 112.93 40.20Q111 42.20 108.55 43.65Q107 44.50 105.65 44.50ZM115.60 45.40Q113.45 45.40 112.45 44.55Q111.45 43.70 111.45 42.75Q111.45 41.95 112.08 41.38Q112.70 40.80 113.85 40.90Q115.55 41 117.30 41.38Q119.05 41.75 120.70 41.65Q121.15 40.85 121.45 39.85Q121.75 38.85 121.75 37.90Q121.75 36.80 121.22 35.70Q120.70 34.60 120.03 33.67Q119.35 32.75 118.85 32.20Q117.85 33.95 116.67 35.60Q115.50 37.25 114.15 38.80Q113.65 39.35 113.30 39.35Q113.10 39.35 113.10 39.15Q113.10 38.95 113.65 38.30Q115.10 36.60 116.35 34.65Q117.60 32.70 118.25 31.60Q117.90 31.20 117.60 30.27Q117.30 29.35 117.30 28.40Q117.30 26.95 117.90 25.65Q118.50 24.35 119.70 24.35Q120.40 24.35 120.85 24.72Q121.30 25.10 121.30 26.20Q121.30 26.55 121.25 26.95Q121.20 27.35 121.10 27.85Q120.90 28.50 120.45 29.40Q120 30.30 119.75 30.70Q120.80 31.95 121.90 32.92Q123 33.90 123.75 35.10Q124.50 36.30 124.50 38.25Q124.50 38.90 124.30 39.73Q124.10 40.55 123.80 41.20Q125.10 41 126.78 39.67Q128.45 38.35 130.05 35.95Q130.40 35.40 130.80 35.40Q131.05 35.40 131.05 35.65Q131.05 35.80 130.90 36.05Q129.05 38.80 127.13 40.48Q125.20 42.15 123.15 42.45Q122 44 119.97 44.70Q117.95 45.40 115.60 45.40M119.20 30Q119.35 29.60 119.63 29.02Q119.90 28.45 120.10 27.65Q120.25 27.05 120.25 26.55Q120.25 25.40 119.80 25.40Q119.55 25.40 119.15 25.95Q118.75 26.50 118.75 27.60Q118.75 28.25 118.88 28.95Q119 29.65 119.20 30M115.75 44.40Q117.10 44.40 118.17 43.88Q119.25 43.35 120.05 42.55Q118.75 42.55 117.60 42.40Q116.45 42.25 115.15 42.20Q114.40 42.15 114.03 42.42Q113.65 42.70 113.65 43.10Q113.65 43.55 114.17 43.98Q114.70 44.40 115.75 44.40ZM190.25 12.95Q190.15 13.15 190.03 13.42Q189.90 13.70 189.75 14.10Q189.40 14.85 188.95 15.88Q188.50 16.90 187.95 18.10Q186.90 20.40 185.63 23.10Q184.35 25.80 183.20 28.20Q183.45 28.20 183.63 28.23Q183.80 28.25 184 28.25Q185.20 28.25 185.90 27.85Q186.50 27.55 186.80 27.55Q187.25 27.55 187.25 27.90Q187.25 28.25 186.65 28.65Q185.90 29.10 184.65 29.57Q183.40 30.05 182.20 30Q181.05 32.45 180.03 34.52Q179 36.60 178.10 39.20Q177.40 41.30 177.40 42.20Q177.40 42.70 177.65 42.98Q177.90 43.25 178.60 43.25Q179.25 43.25 180.15 42.85Q181.55 42.25 183.05 40.95Q184.55 39.65 185.90 38.10Q187.25 36.55 188.10 35.25Q188.55 34.60 188.90 34.60Q189.10 34.60 189.10 34.85Q189.10 35.10 188.70 35.75Q187.85 37.10 186.43 38.73Q185 40.35 183.40 41.70Q181.80 43.05 180.30 43.70Q179.20 44.15 178.15 44.15Q174.85 44.15 174.85 40.70Q174.85 39.45 175.30 37.90Q175.95 35.55 176.75 33.65Q177.55 31.75 178.65 29.60Q177.10 29.40 175.83 29.23Q174.55 29.05 172.90 29Q172.15 30.10 171.38 31.35Q170.60 32.60 169.85 33.95Q166.85 39.25 163.55 43.13Q160.25 47 156.68 49.15Q153.10 51.30 149.25 51.30Q146.95 51.30 145 50.23Q143.05 49.15 141.88 47.17Q140.70 45.20 140.70 42.45Q140.70 41.25 140.95 39.92Q141.20 38.60 141.75 37.15Q142.85 34.30 144.97 31.98Q147.10 29.65 149.70 28.27Q152.30 26.90 154.75 26.90Q156.95 26.90 158.53 28.32Q160.10 29.75 160.10 32.50Q160.10 33.80 159.65 35.45Q158.75 38.50 157.10 40.13Q155.45 41.75 153.75 42.40Q152.50 42.85 151.30 42.85Q150.45 42.85 149.83 42.60Q149.20 42.35 149 41.85Q148.95 41.70 148.95 41.50Q148.95 40.95 149.40 40.95Q149.85 40.95 149.95 41.50Q150 41.65 150.33 41.83Q150.65 42 151.30 42Q151.70 42 152.15 41.90Q152.60 41.80 153.10 41.60Q154.40 41.05 155.78 39.63Q157.15 38.20 157.95 35.45Q158.45 33.80 158.45 32.35Q158.45 30.05 157.30 28.90Q156.15 27.75 154.60 27.75Q152.20 27.75 150.38 29.20Q148.55 30.65 147.20 32.92Q145.85 35.20 144.95 37.65Q143.70 41.05 143.70 43.85Q143.70 46.90 145.15 48.65Q146.60 50.40 149.35 50.40Q152.30 50.40 154.97 49Q157.65 47.60 160.10 45.20Q162.55 42.80 164.75 39.73Q166.95 36.65 168.95 33.25Q169.65 32.10 170.30 31.02Q170.95 29.95 171.60 29Q169.80 29 168.18 29.23Q166.55 29.45 165.30 30.27Q164.05 31.10 163.25 32.95Q163.10 33.20 162.93 33.48Q162.75 33.75 162.50 33.80Q162.45 33.80 162.43 33.83Q162.40 33.85 162.35 33.85Q162 33.85 162 33.45Q162 33.35 162.10 33.05Q162.20 32.75 162.45 32.30Q164.40 28.95 167.18 27.88Q169.95 26.80 172.90 26.85Q176 22.35 178.75 19.50Q181.50 16.65 183.75 15.05Q186 13.45 187.65 12.82Q189.30 12.20 190.10 12.20Q190.35 12.20 190.35 12.45Q190.35 12.75 190.25 12.95M187.90 14.15Q187.45 14.15 186.73 14.50Q186 14.85 185.35 15.27Q184.70 15.70 184.40 15.90Q182.50 17.30 179.88 19.97Q177.25 22.65 174.20 26.95Q175.85 27 177.05 27.22Q178.25 27.45 179.65 27.70Q181.20 24.70 182.85 22.15Q184.50 19.60 185.88 17.55Q187.25 15.50 187.90 14.15ZM190.65 44.85Q189.10 44.85 187.95 43.95Q186.80 43.05 186.80 41.05Q186.80 39.70 187.40 37.50Q188.00 35.30 189.40 32Q190.90 28.35 192.80 24.72Q194.70 21.10 197.05 18.10Q198.00 16.90 199.20 16.27Q200.40 15.65 201.40 15.65Q202.35 15.65 202.95 16.15Q203.55 16.65 203.55 17.70Q203.55 18.25 203.30 19.02Q203.05 19.80 202.50 20.80Q201.30 22.95 198.78 26.02Q196.25 29.10 191.65 33.10Q190.85 35.15 190.08 36.92Q189.30 38.70 189.10 40.05Q189.05 40.30 189.03 40.55Q189.00 40.80 189.00 41.05Q189.00 42.45 189.68 43.02Q190.35 43.60 191.30 43.60Q192.15 43.60 193.13 43.20Q194.10 42.80 194.85 42.25Q196.45 41.05 198.03 39.23Q199.60 37.40 200.90 35.50Q201.05 35.25 201.25 35.25Q201.55 35.25 201.55 35.65Q201.55 35.85 201.40 36.10Q200.00 38.25 198.33 40.15Q196.65 42.05 194.90 43.40Q194.00 44.10 192.88 44.48Q191.75 44.85 190.65 44.85M192.55 30.90Q195.45 28.40 197.45 26.02Q199.45 23.65 200.75 21.50Q201.60 20.15 201.93 19.25Q202.25 18.35 202.25 17.90Q202.25 17.35 201.85 17.35Q200.90 17.35 199.20 19.65Q197.20 22.45 195.63 25.13Q194.05 27.80 192.55 30.90ZM207.45 27.80Q206.70 27.80 206.30 27.30Q205.90 26.80 205.90 26.15Q205.90 25.45 206.43 25Q206.95 24.55 207.55 24.55Q208.30 24.55 208.75 25.02Q209.20 25.50 209.20 26.15Q209.20 26.80 208.65 27.30Q208.10 27.80 207.45 27.80M205.05 44.85Q203.35 44.85 202.35 43.58Q201.35 42.30 201.35 40.35Q201.35 38.95 201.85 37.50Q202.10 36.70 202.45 35.63Q202.80 34.55 203.10 33.75Q202.45 34.70 201.78 35.65Q201.10 36.60 200.30 37.50Q199.85 38 199.45 38Q199.25 38 199.25 37.80Q199.25 37.60 199.50 37.30Q201.25 35.05 202.43 33.15Q203.60 31.25 204.20 30.30Q204.60 29.60 205.50 29.45Q206.40 29.30 207.05 29.35Q207.25 29.35 207.50 29.38Q207.75 29.40 208.25 29.40Q207.95 30 207.33 31.42Q206.70 32.85 206.05 34.48Q205.40 36.10 204.90 37.35Q204.45 38.45 204.18 39.55Q203.90 40.65 203.90 41.55Q203.90 42.50 204.25 43.10Q204.60 43.70 205.35 43.70Q206.35 43.70 207.65 42.90Q208.95 42.10 210.28 40.90Q211.60 39.70 212.73 38.42Q213.85 37.15 214.50 36.15Q214.70 35.85 214.95 35.85Q215.20 35.85 215.20 36.25Q215.20 36.55 215.00 36.80Q212.40 40.35 209.98 42.60Q207.55 44.85 205.05 44.85ZM223.75 44.70Q222.45 44.70 221.50 43.95Q220.55 43.20 220.35 41.80Q220.30 41.45 220.28 41.15Q220.25 40.85 220.25 40.50Q220.25 39.95 220.28 39.38Q220.30 38.80 220.35 38.30Q220.35 38.10 220.38 37.95Q220.40 37.80 220.40 37.65Q220.40 36.50 220.00 36.25Q219.60 36 219.20 35.85Q218.85 36.40 218.25 37.42Q217.65 38.45 217.05 39.67Q216.45 40.90 215.98 42.05Q215.50 43.20 215.40 43.95Q214.90 44.35 213.85 44.35Q213.25 44.35 212.85 44.20Q212.55 44.10 212.55 43.75Q213.10 41.75 214.05 38.65Q215.00 35.55 216.43 31.92Q217.85 28.30 219.73 24.70Q221.60 21.10 223.95 18.10Q224.90 16.90 226.03 16.30Q227.15 15.70 228.10 15.70Q229.05 15.70 229.68 16.25Q230.30 16.80 230.30 17.95Q230.30 19.15 229.40 21.05Q228.30 23.40 225.90 26.07Q223.50 28.75 218.90 32.75Q218.55 33.45 218.08 34.75Q217.60 36.05 217.25 37.25Q217.75 36.40 218.60 35.20Q219.45 34 220.50 32.77Q221.55 31.55 222.60 30.50Q223.90 29.25 224.98 28.75Q226.05 28.25 226.85 28.25Q227.90 28.25 228.50 28.92Q229.10 29.60 229.10 30.60Q229.10 31.70 228.30 32.92Q227.50 34.15 225.70 35Q225.20 35.25 224.18 35.50Q223.15 35.75 222.60 35.85Q223.15 36.65 223.13 38.17Q223.10 39.70 223.20 41.10Q223.25 41.95 223.70 42.58Q224.15 43.20 225.05 43.20Q225.50 43.20 226.05 43.02Q226.60 42.85 227.25 42.40Q228.90 41.30 230.73 39.52Q232.55 37.75 234.15 35.30Q234.40 35 234.55 35Q234.85 35 234.85 35.45Q234.85 35.65 234.70 35.90Q233.15 38.20 231.05 40.38Q228.95 42.55 227.05 43.70Q225.30 44.70 223.75 44.70M220.05 30.15Q223.00 27.40 225.03 25.15Q227.05 22.90 228.25 20.65Q229.20 18.75 229.20 17.95Q229.20 17.40 228.80 17.40Q228.45 17.40 227.83 17.95Q227.20 18.50 226.35 19.65Q224.35 22.40 222.93 24.75Q221.50 27.10 220.05 30.15M219.85 34.90Q220.90 34.75 222.40 34.17Q223.90 33.60 224.90 32.65Q225.65 31.95 226.00 31.32Q226.35 30.70 226.35 30.25Q226.35 29.50 225.65 29.50Q225.25 29.50 224.63 29.85Q224.00 30.20 223.20 31.05Q222.50 31.80 221.58 32.73Q220.65 33.65 219.85 34.90ZM238.05 44.40Q236.30 44.50 235.23 43.77Q234.15 43.05 233.68 41.83Q233.20 40.60 233.20 39.25Q233.20 38.50 233.35 37.75Q233.50 37 233.70 36.35Q234.25 34.75 235.20 33.40Q236.15 32.05 237.25 31.10Q238.30 30.20 239.58 29.67Q240.85 29.15 241.95 29.15Q243.05 29.15 243.80 29.73Q244.55 30.30 244.55 31.60Q244.55 32.30 244.25 33.35Q243.70 35.10 241.93 36.45Q240.15 37.80 238.10 37.80Q237.50 37.80 236.80 37.65Q236.45 38.90 236.45 40.20Q236.45 41.55 237.03 42.42Q237.60 43.30 238.90 43.30Q240.40 43.30 242.20 42.27Q244 41.25 245.83 39.50Q247.65 37.75 249.15 35.50Q249.35 35.15 249.60 35.15Q249.85 35.15 249.85 35.55Q249.85 35.95 249.60 36.25Q248.25 38.10 246.50 39.92Q244.75 41.75 242.65 43Q240.55 44.25 238.05 44.40M237.75 36.95Q238.60 36.95 239.60 36.30Q240.60 35.65 241.48 34.75Q242.35 33.85 242.70 33.10Q243.25 32 243.25 31.25Q243.25 30.55 242.88 30.30Q242.50 30.05 242.30 30.05Q241.80 30.05 240.93 30.60Q240.05 31.15 239.20 32.35Q238.40 33.40 237.80 34.60Q237.20 35.80 237.05 36.80Q237.35 36.95 237.75 36.95Z"/></g></g></g></svg>