<svg width="499.7" height="80.032" viewBox="0 0 499.7 80.032" xmlns="http://www.w3.org/2000/svg"><g id="svgGroup" stroke-linecap="round" fill-rule="evenodd" font-size="9pt" stroke="#ffffff" stroke-width="0.25mm" fill="#ffffff" style="stroke:#ffffff;stroke-width:0.25mm;fill:#ffffff"><path d="M 16.6 61 L 16.6 60.7 Q 16.6 59.7 17.4 59.7 Q 18.4 59.7 18.5 60.9 Q 18.6 61.2 19.25 61.55 Q 19.9 61.9 21.1 61.9 Q 21.9 61.9 22.85 61.7 Q 23.8 61.5 24.8 61.1 Q 27.4 60 30.15 56.9 Q 32.9 53.8 34.5 48.3 Q 35.5 45 35.5 42.1 Q 35.5 37.5 33.2 35.2 Q 30.9 32.9 27.8 32.9 Q 23.1 32.9 18.95 35.8 Q 14.8 38.7 11.75 43.2 Q 8.7 47.7 6.9 52.6 Q 5.8 55.6 5.3 58.4 Q 4.8 61.2 4.8 63.7 Q 4.8 70.3 8.1 74.3 Q 11.4 78.3 17.1 78.3 Q 22.1 78.3 26.8 75.95 Q 31.5 73.6 35.8 69.75 Q 40.1 65.9 43.85 61.25 Q 47.6 56.6 50.65 51.85 Q 53.7 47.1 56 43 Q 58.3 38.9 59.7 36.2 Q 55.3 36.9 52.1 38.05 Q 48.9 39.2 47 43.3 Q 46.8 43.8 46.15 44.35 Q 45.5 44.9 45 45 Q 44.9 45 44.85 45.05 Q 44.8 45.1 44.7 45.1 Q 44 45.1 44 44.3 Q 44 43.6 44.8 42 Q 47.8 37 52.4 34.55 Q 57 32.1 62.1 31.4 Q 63.8 28.2 65.6 24.6 Q 67.4 21 69.6 17.4 Q 71.6 13.9 73.9 10.35 Q 76.2 6.8 78.5 4.1 Q 77.5 4 76.5 3.95 Q 75.5 3.9 74.4 3.9 Q 69.1 3.9 63.85 5.2 Q 58.6 6.5 54.75 9.45 Q 50.9 12.4 49.7 17.5 Q 49.6 17.9 49.55 18.35 Q 49.5 18.8 49.5 19.3 Q 49.5 21.8 51.05 23.4 Q 52.6 25 54.8 25 Q 56.8 25 58.55 23.5 Q 60.3 22 61.4 19.9 Q 62.5 17.8 62.5 16.2 Q 62.5 15 63.2 15 Q 63.8 15 63.8 16 Q 63.8 19.4 62.25 21.65 Q 60.7 23.9 58.4 25 Q 56.1 26.1 53.6 26.1 Q 50.2 26.1 47.55 23.9 Q 44.9 21.7 45.4 17.7 Q 46 13 49.05 10 Q 52.1 7 56.4 5.35 Q 60.7 3.7 65.4 3.1 Q 70.1 2.5 74 2.5 Q 76.2 2.5 78 2.65 Q 79.8 2.8 80.8 3 Q 81.1 3.1 81.1 3.5 Q 81.1 4 80.65 4.8 Q 80.2 5.6 80 5.8 Q 76.3 11.9 73.6 18.2 Q 70.9 24.5 68 31.1 Q 70.9 31.2 74.45 31.75 Q 78 32.3 81.2 32.85 Q 84.4 33.4 86.2 33.7 Q 89.5 27.7 92.6 22.15 Q 95.7 16.6 98.2 12.1 L 102.2 4.9 Q 103.6 2.4 104.8 1.25 Q 106 0.1 106.6 0 L 107 0 Q 107.6 0 107.85 0.45 Q 108.1 0.9 108.1 1.4 Q 108.1 2.2 107.8 2.8 Q 107.7 3 106.3 6 Q 104.9 9 102.7 13.7 Q 100.5 18.4 98 23.7 Q 95.5 29 93.2 33.8 Q 95.1 33.9 96.5 33.75 Q 97.9 33.6 98.6 33.1 Q 99.4 32.5 99.9 32.5 Q 100.4 32.5 100.4 33 Q 100.4 33.7 99.3 34.7 Q 98.3 35.6 96.3 36.65 Q 94.3 37.7 91.4 37.8 Q 89.7 41.2 87.4 45.85 Q 85.1 50.5 83 55.8 Q 82.6 56.8 82.25 58.1 Q 81.9 59.4 81.9 60.6 Q 81.9 62 82.55 63 Q 83.2 64 84.8 64 Q 87.8 64 90.85 61.95 Q 93.9 59.9 96.9 56.65 Q 99.9 53.4 102.7 49.7 Q 103.2 49.1 103.6 49.1 Q 104.1 49.1 104.1 49.9 Q 104.1 50.5 103.7 51 Q 100.8 54.8 97.7 58.35 Q 94.6 61.9 91.2 64.1 Q 87.8 66.3 83.9 66.3 Q 79.8 66.3 78.05 64.25 Q 76.3 62.2 76.3 59 Q 76.3 57.5 76.65 55.85 Q 77 54.2 77.5 52.5 Q 78.8 48.5 80.8 44.45 Q 82.8 40.4 84.2 37.6 Q 82.5 37.4 79.5 36.9 Q 76.5 36.4 73 36 Q 69.5 35.6 66 35.7 Q 63.5 41.7 60 48.05 Q 56.5 54.4 52.05 60.2 Q 47.6 66 42.15 70.6 Q 36.7 75.2 30.2 77.75 Q 23.7 80.3 16.1 80 Q 11.7 79.8 8 77.65 Q 4.3 75.5 2.15 71.6 Q 0 67.7 0 62.4 Q 0 59.9 0.5 57.25 Q 1 54.6 2.1 51.7 Q 4.3 46 8.5 41.35 Q 12.7 36.7 17.9 33.95 Q 23.1 31.2 28.1 31.2 Q 32.5 31.2 35.65 34.1 Q 38.8 37 38.8 42.5 Q 38.8 45.1 37.9 48.3 Q 36.1 54.4 32.7 57.7 Q 29.3 61 25.9 62.4 Q 23.4 63.3 21.1 63.3 Q 19.3 63.3 18.05 62.7 Q 16.8 62.1 16.6 61 Z M 380.5 3.3 Q 380.3 3.7 380.05 4.25 Q 379.8 4.8 379.5 5.6 Q 378.8 7.1 377.9 9.15 Q 377 11.2 375.9 13.6 Q 373.8 18.2 371.25 23.6 Q 368.7 29 366.4 33.8 Q 366.9 33.8 367.25 33.85 Q 367.6 33.9 368 33.9 Q 370.4 33.9 371.8 33.1 Q 373 32.5 373.6 32.5 Q 374.5 32.5 374.5 33.2 Q 374.5 33.9 373.3 34.7 Q 371.8 35.6 369.3 36.55 Q 366.8 37.5 364.4 37.4 Q 362.1 42.3 360.05 46.45 Q 358 50.6 356.2 55.8 Q 354.8 60 354.8 61.8 Q 354.8 62.8 355.3 63.35 Q 355.8 63.9 357.2 63.9 Q 358.5 63.9 360.3 63.1 Q 363.1 61.9 366.1 59.3 Q 369.1 56.7 371.8 53.6 Q 374.5 50.5 376.2 47.9 Q 377.1 46.6 377.8 46.6 Q 378.2 46.6 378.2 47.1 Q 378.2 47.6 377.4 48.9 Q 375.7 51.6 372.85 54.85 Q 370 58.1 366.8 60.8 Q 363.6 63.5 360.6 64.8 Q 358.4 65.7 356.3 65.7 Q 349.7 65.7 349.7 58.8 Q 349.7 56.3 350.6 53.2 Q 351.9 48.5 353.5 44.7 Q 355.1 40.9 357.3 36.6 Q 354.2 36.2 351.65 35.85 Q 349.1 35.5 345.8 35.4 Q 344.3 37.6 342.75 40.1 Q 341.2 42.6 339.7 45.3 Q 333.7 55.9 327.1 63.65 Q 320.5 71.4 313.35 75.7 Q 306.2 80 298.5 80 Q 293.9 80 290 77.85 Q 286.1 75.7 283.75 71.75 Q 281.4 67.8 281.4 62.3 Q 281.4 59.9 281.9 57.25 Q 282.4 54.6 283.5 51.7 Q 285.7 46 289.95 41.35 Q 294.2 36.7 299.4 33.95 Q 304.6 31.2 309.5 31.2 Q 313.9 31.2 317.05 34.05 Q 320.2 36.9 320.2 42.4 Q 320.2 45 319.3 48.3 Q 317.5 54.4 314.2 57.65 Q 310.9 60.9 307.5 62.2 Q 305 63.1 302.6 63.1 Q 300.9 63.1 299.65 62.6 Q 298.4 62.1 298 61.1 Q 297.9 60.8 297.9 60.4 Q 297.9 59.3 298.8 59.3 Q 299.7 59.3 299.9 60.4 Q 300 60.7 300.65 61.05 Q 301.3 61.4 302.6 61.4 Q 303.4 61.4 304.3 61.2 Q 305.2 61 306.2 60.6 Q 308.8 59.5 311.55 56.65 Q 314.3 53.8 315.9 48.3 Q 316.9 45 316.9 42.1 Q 316.9 37.5 314.6 35.2 Q 312.3 32.9 309.2 32.9 Q 304.4 32.9 300.75 35.8 Q 297.1 38.7 294.4 43.25 Q 291.7 47.8 289.9 52.7 Q 287.4 59.5 287.4 65.1 Q 287.4 71.2 290.3 74.7 Q 293.2 78.2 298.7 78.2 Q 304.6 78.2 309.95 75.4 Q 315.3 72.6 320.2 67.8 Q 325.1 63 329.5 56.85 Q 333.9 50.7 337.9 43.9 Q 339.3 41.6 340.6 39.45 Q 341.9 37.3 343.2 35.4 Q 339.6 35.4 336.35 35.85 Q 333.1 36.3 330.6 37.95 Q 328.1 39.6 326.5 43.3 Q 326.2 43.8 325.85 44.35 Q 325.5 44.9 325 45 Q 324.9 45 324.85 45.05 Q 324.8 45.1 324.7 45.1 Q 324 45.1 324 44.3 Q 324 44.1 324.2 43.5 Q 324.4 42.9 324.9 42 Q 328.8 35.3 334.35 33.15 Q 339.9 31 345.8 31.1 Q 352 22.1 357.5 16.4 Q 363 10.7 367.5 7.5 Q 372 4.3 375.3 3.05 Q 378.6 1.8 380.2 1.8 Q 380.7 1.8 380.7 2.3 Q 380.7 2.9 380.5 3.3 Z M 447.5 66.8 Q 444.9 66.8 443 65.3 Q 441.1 63.8 440.7 61 Q 440.6 60.3 440.55 59.7 Q 440.5 59.1 440.5 58.4 Q 440.5 57.3 440.55 56.15 Q 440.6 55 440.7 54 Q 440.7 53.6 440.75 53.3 Q 440.8 53 440.8 52.7 Q 440.8 50.4 440 49.9 Q 439.2 49.4 438.4 49.1 Q 437.7 50.2 436.5 52.25 Q 435.3 54.3 434.1 56.75 Q 432.9 59.2 431.95 61.5 Q 431 63.8 430.8 65.3 Q 429.8 66.1 427.7 66.1 Q 426.5 66.1 425.7 65.8 Q 425.1 65.6 425.1 64.9 Q 426.2 60.9 428.1 54.7 Q 430 48.5 432.85 41.25 Q 435.7 34 439.45 26.8 Q 443.2 19.6 447.9 13.6 Q 449.8 11.2 452.05 10 Q 454.3 8.8 456.2 8.8 Q 458.1 8.8 459.35 9.9 Q 460.6 11 460.6 13.3 Q 460.6 15.7 458.8 19.5 Q 456.6 24.2 451.8 29.55 Q 447 34.9 437.8 42.9 Q 437.1 44.3 436.15 46.9 Q 435.2 49.5 434.5 51.9 Q 435.5 50.2 437.2 47.8 Q 438.9 45.4 441 42.95 Q 443.1 40.5 445.2 38.4 Q 447.8 35.9 449.95 34.9 Q 452.1 33.9 453.7 33.9 Q 455.8 33.9 457 35.25 Q 458.2 36.6 458.2 38.6 Q 458.2 40.8 456.6 43.25 Q 455 45.7 451.4 47.4 Q 450.4 47.9 448.35 48.4 Q 446.3 48.9 445.2 49.1 Q 446.3 50.7 446.25 53.75 Q 446.2 56.8 446.4 59.6 Q 446.5 61.3 447.4 62.55 Q 448.3 63.8 450.1 63.8 Q 451 63.8 452.1 63.45 Q 453.2 63.1 454.5 62.2 Q 457.8 60 461.45 56.45 Q 465.1 52.9 468.3 48 Q 468.8 47.4 469.1 47.4 Q 469.7 47.4 469.7 48.3 Q 469.7 48.7 469.4 49.2 Q 466.3 53.8 462.1 58.15 Q 457.9 62.5 454.1 64.8 Q 450.6 66.8 447.5 66.8 Z M 156.3 66 Q 153.5 66 152.3 63.8 Q 151.1 61.6 151.1 58.7 L 151.1 57.6 Q 151.1 57 151.2 56.5 Q 149.3 59.9 146.3 62.9 Q 143.3 65.9 138.9 65.9 Q 135.9 65.9 133.85 63.7 Q 131.8 61.5 131.8 57 Q 131.8 53.4 133.8 48 Q 134.9 45.4 137 42.7 Q 139.1 40 142.1 38.15 Q 145.1 36.3 148.8 36.3 Q 152.8 36.3 154.4 37.8 Q 156 39.3 156.4 40.1 Q 156.4 40.2 156.45 40.25 Q 156.5 40.3 156.5 40.4 Q 156.5 41.3 155.4 41.3 Q 154.9 41.3 154.4 40.8 Q 153.2 39.4 152 38.8 Q 150.8 38.2 149.7 38.2 Q 147.4 38.2 145.4 40.15 Q 143.4 42.1 141.85 44.75 Q 140.3 47.4 139.3 49.7 Q 137.9 52.9 137.25 55.45 Q 136.6 58 136.6 59.7 Q 136.6 64.2 139.7 64.2 Q 141.9 64.2 144.9 61.4 Q 147.9 58.6 150.6 53.1 Q 153 48.3 154.9 44.55 Q 156.8 40.8 158.2 38 Q 158.5 37.3 159.7 36.95 Q 160.9 36.6 162.1 36.6 Q 163.2 36.6 164.1 36.95 Q 165 37.3 165 38.1 Q 165 38.5 164.5 39.2 Q 163.3 40.9 161.45 44.2 Q 159.6 47.5 158.05 51.1 Q 156.5 54.7 156 57.5 Q 155.7 59 155.7 60.2 Q 155.7 63.4 157.9 63.4 Q 158.6 63.4 160.1 62.9 Q 162.9 61.7 165.85 59.15 Q 168.8 56.6 171.45 53.5 Q 174.1 50.4 175.9 47.7 Q 176.8 46.4 177.3 46.4 Q 177.6 46.4 177.6 46.9 Q 177.6 47.7 176.8 48.9 Q 175 51.6 172.25 54.9 Q 169.5 58.2 166.35 61 Q 163.2 63.8 160.2 65.1 Q 158 66 156.3 66 Z M 214.7 32.4 L 211.3 32.4 Q 209.1 32.4 209.1 31.5 Q 209.1 31 209.75 30.65 Q 210.4 30.3 211.3 30.3 Q 212.3 30.2 213.4 30.25 Q 214.5 30.3 215.8 30.3 L 224.4 14.5 Q 224.8 13.7 226.25 13.45 Q 227.7 13.2 228.4 13.2 Q 229.5 13.2 230.55 13.7 Q 231.6 14.2 231.2 14.8 Q 230.9 15.2 229.95 17 Q 229 18.8 227.7 21.2 Q 226.4 23.6 225.05 26.05 Q 223.7 28.5 222.7 30.3 L 227 30.3 Q 229.5 30.3 232.35 30.25 Q 235.2 30.2 237.5 30 Q 239.8 29.8 240.5 29.5 Q 241.1 29.2 241.7 29.2 Q 242.7 29.2 242.7 30 Q 242.7 30.9 241.3 31.7 Q 240.3 32.2 237.4 32.35 Q 234.5 32.5 230.7 32.5 L 227.3 32.5 Q 226 32.5 224.5 32.45 Q 223 32.4 221.6 32.4 Q 218.3 38.5 214.85 44.45 Q 211.4 50.4 209.3 57.1 Q 208.7 59 208.7 60.5 Q 208.7 64.1 211.9 64.1 Q 213.5 64.1 215.9 62.9 Q 220.3 60.7 224.5 56.6 Q 228.7 52.5 231.8 48.1 Q 232.3 47.3 232.9 47.3 Q 233.3 47.3 233.3 47.8 Q 233.3 48.3 232.9 49 Q 229.7 53.8 225.85 57.8 Q 222 61.8 217.1 64.7 Q 214 66.4 211.3 66.4 Q 208 66.4 205.8 64.35 Q 203.6 62.3 203.6 59 Q 203.6 57.3 204.2 55.5 Q 206.2 50 208.9 44.05 Q 211.6 38.1 214.7 32.4 Z M 186.8 66.1 Q 184.3 66.1 183 64.55 Q 181.7 63 181.7 60.5 Q 181.7 59.4 181.95 58.05 Q 182.2 56.7 182.8 55.4 Q 183.9 52.8 185.35 50.45 Q 186.8 48.1 188 45.3 Q 188.7 43.8 188.7 42.6 Q 188.7 41.1 187.5 40.55 Q 186.3 40 184.6 39.85 Q 182.9 39.7 181.4 39.4 Q 179.8 44 177.65 47.6 Q 175.5 51.2 172.3 54.8 Q 171.2 55.9 170.7 55.9 Q 170.3 55.9 170.3 55.5 Q 170.3 54.8 171.4 53.6 Q 173.6 51.1 175.35 48.25 Q 177.1 45.4 178.25 42.9 Q 179.4 40.4 179.7 39.2 Q 177.5 38.3 176.2 35.75 Q 174.9 33.2 174.9 30.7 Q 174.9 27.7 176.4 25.75 Q 177.9 23.8 179.5 23.8 Q 180.9 23.8 182 25.4 Q 183.1 27 183.1 30.8 Q 183.1 32.4 182.7 34.05 Q 182.3 35.7 182 36.8 Q 183.2 37 184.8 37.05 Q 186.4 37.1 187.5 37.2 Q 188.8 37.2 190.05 37.3 Q 191.3 37.4 192.3 37.7 Q 195 38.5 195 41 Q 195 43.2 193.3 46.5 Q 192 49.3 190.4 52.1 Q 188.8 54.9 187.7 57.8 Q 187.3 58.8 187.05 59.85 Q 186.8 60.9 186.8 61.7 Q 186.8 63.7 188.6 63.7 Q 189.6 63.7 191.2 63.1 Q 194 61.9 197.05 59.3 Q 200.1 56.7 202.8 53.6 Q 205.5 50.5 207.2 47.9 Q 208.1 46.6 208.8 46.6 Q 209.2 46.6 209.2 47.1 Q 209.2 47.8 208.4 48.9 Q 206.7 51.6 203.85 54.85 Q 201 58.1 197.8 60.85 Q 194.6 63.6 191.6 64.9 Q 188.8 66.1 186.8 66.1 Z M 231.2 68.2 Q 226.9 68.2 224.9 66.5 Q 222.9 64.8 222.9 62.9 Q 222.9 61.3 224.15 60.15 Q 225.4 59 227.7 59.2 Q 231.1 59.4 234.6 60.15 Q 238.1 60.9 241.4 60.7 Q 242.3 59.1 242.9 57.1 Q 243.5 55.1 243.5 53.2 Q 243.5 51 242.45 48.8 Q 241.4 46.6 240.05 44.75 Q 238.7 42.9 237.7 41.8 Q 235.7 45.3 233.35 48.6 Q 231 51.9 228.3 55 Q 227.3 56.1 226.6 56.1 Q 226.2 56.1 226.2 55.7 Q 226.2 55.3 227.3 54 Q 230.2 50.6 232.7 46.7 Q 235.2 42.8 236.5 40.6 Q 235.8 39.8 235.2 37.95 Q 234.6 36.1 234.6 34.2 Q 234.6 31.3 235.8 28.7 Q 237 26.1 239.4 26.1 Q 240.8 26.1 241.7 26.85 Q 242.6 27.6 242.6 29.8 Q 242.6 30.5 242.5 31.3 Q 242.4 32.1 242.2 33.1 Q 241.8 34.4 240.9 36.2 Q 240 38 239.5 38.8 Q 241.6 41.3 243.8 43.25 Q 246 45.2 247.5 47.6 Q 249 50 249 53.9 Q 249 55.2 248.6 56.85 Q 248.2 58.5 247.6 59.8 Q 250.2 59.4 253.55 56.75 Q 256.9 54.1 260.1 49.3 Q 260.8 48.2 261.6 48.2 Q 262.1 48.2 262.1 48.7 Q 262.1 49 261.8 49.5 Q 258.1 55 254.25 58.35 Q 250.4 61.7 246.3 62.3 Q 244 65.4 239.95 66.8 Q 235.9 68.2 231.2 68.2 Z M 381.3 67.1 Q 378.2 67.1 375.9 65.3 Q 373.6 63.5 373.6 59.5 Q 373.6 56.8 374.8 52.4 Q 376 48 378.8 41.4 Q 381.8 34.1 385.6 26.85 Q 389.4 19.6 394.1 13.6 Q 396 11.2 398.4 9.95 Q 400.8 8.7 402.8 8.7 Q 404.7 8.7 405.9 9.7 Q 407.1 10.7 407.1 12.8 Q 407.1 13.9 406.6 15.45 Q 406.1 17 405 19 Q 402.6 23.3 397.55 29.45 Q 392.5 35.6 383.3 43.6 Q 381.7 47.7 380.15 51.25 Q 378.6 54.8 378.2 57.5 Q 378.1 58 378.05 58.5 Q 378 59 378 59.5 Q 378 62.3 379.35 63.45 Q 380.7 64.6 382.6 64.6 Q 384.3 64.6 386.25 63.8 Q 388.2 63 389.7 61.9 Q 392.9 59.5 396.05 55.85 Q 399.2 52.2 401.8 48.4 Q 402.1 47.9 402.5 47.9 Q 403.1 47.9 403.1 48.7 Q 403.1 49.1 402.8 49.6 Q 400 53.9 396.65 57.7 Q 393.3 61.5 389.8 64.2 Q 388 65.6 385.75 66.35 Q 383.5 67.1 381.3 67.1 Z M 410.1 67.1 Q 406.7 67.1 404.7 64.55 Q 402.7 62 402.7 58.1 Q 402.7 55.3 403.7 52.4 Q 404.2 50.8 404.9 48.65 Q 405.6 46.5 406.2 44.9 Q 404.9 46.8 403.55 48.7 Q 402.2 50.6 400.6 52.4 Q 399.7 53.4 398.9 53.4 Q 398.5 53.4 398.5 53 Q 398.5 52.6 399 52 Q 402.5 47.5 404.85 43.7 Q 407.2 39.9 408.4 38 Q 409.2 36.6 411 36.3 Q 412.8 36 414.1 36.1 Q 414.5 36.1 415 36.15 Q 415.5 36.2 416.5 36.2 Q 415.9 37.4 414.65 40.25 Q 413.4 43.1 412.1 46.35 L 409.8 52.1 Q 408.9 54.3 408.35 56.5 Q 407.8 58.7 407.8 60.5 Q 407.8 62.4 408.5 63.6 Q 409.2 64.8 410.7 64.8 Q 412.7 64.8 415.3 63.2 Q 417.9 61.6 420.55 59.2 Q 423.2 56.8 425.45 54.25 Q 427.7 51.7 429 49.7 Q 429.4 49.1 429.9 49.1 Q 430.4 49.1 430.4 49.9 Q 430.4 50.5 430 51 Q 424.8 58.1 419.95 62.6 Q 415.1 67.1 410.1 67.1 Z M 111.6 66.2 Q 108.1 66.4 105.95 64.95 Q 103.8 63.5 102.85 61.05 Q 101.9 58.6 101.9 55.9 Q 101.9 54.4 102.2 52.9 Q 102.5 51.4 102.9 50.1 Q 104 46.9 105.9 44.2 Q 107.8 41.5 110 39.6 Q 112.1 37.8 114.65 36.75 Q 117.2 35.7 119.4 35.7 Q 121.6 35.7 123.1 36.85 Q 124.6 38 124.6 40.6 Q 124.6 42 124 44.1 Q 122.9 47.6 119.35 50.3 Q 115.8 53 111.7 53 Q 110.5 53 109.1 52.7 Q 108.4 55.2 108.4 57.8 Q 108.4 60.5 109.55 62.25 Q 110.7 64 113.3 64 Q 116.3 64 119.9 61.95 Q 123.5 59.9 127.15 56.4 Q 130.8 52.9 133.8 48.4 Q 134.2 47.7 134.7 47.7 Q 135.2 47.7 135.2 48.5 Q 135.2 49.3 134.7 49.9 Q 132 53.6 128.5 57.25 Q 125 60.9 120.8 63.4 Q 116.6 65.9 111.6 66.2 Z M 476.1 66.2 Q 472.6 66.4 470.45 64.95 Q 468.3 63.5 467.35 61.05 Q 466.4 58.6 466.4 55.9 Q 466.4 54.4 466.7 52.9 Q 467 51.4 467.4 50.1 Q 468.5 46.9 470.4 44.2 Q 472.3 41.5 474.5 39.6 Q 476.6 37.8 479.15 36.75 Q 481.7 35.7 483.9 35.7 Q 486.1 35.7 487.6 36.85 Q 489.1 38 489.1 40.6 Q 489.1 42 488.5 44.1 Q 487.4 47.6 483.85 50.3 Q 480.3 53 476.2 53 Q 475 53 473.6 52.7 Q 472.9 55.2 472.9 57.8 Q 472.9 60.5 474.05 62.25 Q 475.2 64 477.8 64 Q 480.8 64 484.4 61.95 Q 488 59.9 491.65 56.4 Q 495.3 52.9 498.3 48.4 Q 498.7 47.7 499.2 47.7 Q 499.7 47.7 499.7 48.5 Q 499.7 49.3 499.2 49.9 Q 496.5 53.6 493 57.25 Q 489.5 60.9 485.3 63.4 Q 481.1 65.9 476.1 66.2 Z M 375.8 5.7 Q 374.9 5.7 373.45 6.4 Q 372 7.1 370.7 7.95 Q 369.4 8.8 368.8 9.2 Q 365 12 359.75 17.35 Q 354.5 22.7 348.4 31.3 Q 351.7 31.4 354.1 31.85 Q 356.5 32.3 359.3 32.8 Q 362.4 26.8 365.7 21.7 Q 369 16.6 371.75 12.5 Q 374.5 8.4 375.8 5.7 Z M 385.1 39.2 Q 390.9 34.2 394.9 29.45 Q 398.9 24.7 401.5 20.4 Q 403.2 17.7 403.85 15.9 Q 404.5 14.1 404.5 13.2 Q 404.5 12.1 403.7 12.1 Q 401.8 12.1 398.4 16.7 Q 394.4 22.3 391.25 27.65 Q 388.1 33 385.1 39.2 Z M 440.1 37.7 Q 446 32.2 450.05 27.7 Q 454.1 23.2 456.5 18.7 Q 458.4 14.9 458.4 13.3 Q 458.4 12.2 457.6 12.2 Q 456.9 12.2 455.65 13.3 Q 454.4 14.4 452.7 16.7 Q 448.7 22.2 445.85 26.9 Q 443 31.6 440.1 37.7 Z M 111 51.3 Q 112.7 51.3 114.7 50 Q 116.7 48.7 118.45 46.9 Q 120.2 45.1 120.9 43.6 Q 122 41.4 122 39.9 Q 122 38.5 121.25 38 Q 120.5 37.5 120.1 37.5 Q 119.1 37.5 117.35 38.6 Q 115.6 39.7 113.9 42.1 Q 112.3 44.2 111.1 46.6 Q 109.9 49 109.6 51 Q 110.2 51.3 111 51.3 Z M 475.5 51.3 Q 477.2 51.3 479.2 50 Q 481.2 48.7 482.95 46.9 Q 484.7 45.1 485.4 43.6 Q 486.5 41.4 486.5 39.9 Q 486.5 38.5 485.75 38 Q 485 37.5 484.6 37.5 Q 483.6 37.5 481.85 38.6 Q 480.1 39.7 478.4 42.1 Q 476.8 44.2 475.6 46.6 Q 474.4 49 474.1 51 Q 474.7 51.3 475.5 51.3 Z M 439.7 47.2 Q 441.8 46.9 444.8 45.75 Q 447.8 44.6 449.8 42.7 Q 451.3 41.3 452 40.05 Q 452.7 38.8 452.7 37.9 Q 452.7 36.4 451.3 36.4 Q 450.5 36.4 449.25 37.1 Q 448 37.8 446.4 39.5 Q 445 41 443.15 42.85 Q 441.3 44.7 439.7 47.2 Z M 231.5 66.2 Q 234.2 66.2 236.35 65.15 Q 238.5 64.1 240.1 62.5 Q 237.5 62.5 235.2 62.2 Q 232.9 61.9 230.3 61.8 Q 228.8 61.7 228.05 62.25 Q 227.3 62.8 227.3 63.6 Q 227.3 64.5 228.35 65.35 Q 229.4 66.2 231.5 66.2 Z M 414.9 33 Q 413.4 33 412.6 32 Q 411.8 31 411.8 29.7 Q 411.8 28.3 412.85 27.4 Q 413.9 26.5 415.1 26.5 Q 416.6 26.5 417.5 27.45 Q 418.4 28.4 418.4 29.7 Q 418.4 31 417.3 32 Q 416.2 33 414.9 33 Z M 238.4 37.4 Q 238.7 36.6 239.25 35.45 Q 239.8 34.3 240.2 32.7 Q 240.5 31.5 240.5 30.5 Q 240.5 28.2 239.6 28.2 Q 239.1 28.2 238.3 29.3 Q 237.5 30.4 237.5 32.6 Q 237.5 33.9 237.75 35.3 Q 238 36.7 238.4 37.4 Z M 180.3 36.5 Q 180.4 36.1 180.4 35.1 Q 180.4 34.3 180.35 33.35 Q 180.3 32.4 180.3 31.4 Q 180.3 27.2 179.2 27.4 Q 178.8 27.5 178.5 28.4 Q 178.2 29.3 178.2 30.5 Q 178.2 32.2 178.75 34 Q 179.3 35.8 180.3 36.5 Z" vector-effect="non-scaling-stroke"/></g></svg>